<?xml version="1.0" encoding="utf-8"?>
<!-- Generator: Adobe Illustrator 19.2.1, SVG Export Plug-In . SVG Version: 6.00 Build 0)  -->
<svg version="1.1" id="Layer_1" xmlns="http://www.w3.org/2000/svg" xmlns:xlink="http://www.w3.org/1999/xlink" x="0px" y="0px"
	 viewBox="0 0 612 792" style="enable-background:new 0 0 612 792;" xml:space="preserve">
<style type="text/css">
	.st0{fill:#F58220;}
	.st1{fill:#4994D0;}
	.st2{fill-rule:evenodd;clip-rule:evenodd;fill:#4994D0;}
	.st3{fill-rule:evenodd;clip-rule:evenodd;fill:#44ADE2;}
</style>
<path class="st0" d="M221.9,384.9c-0.5,2.3-1.6,3.9-3.3,4.9c-1.2,0.6-2.4,0.9-3.6,0.8h-0.2h-0.1c-1.2-0.1-2.3-0.5-3.4-1.2l-0.6-0.4
	c-2-1.7-3-4.2-3-7.4c0-3.6,1.2-6.2,3.6-7.8c1-0.7,2.2-1,3.6-1.1c1.1,0,2.1,0.3,3.3,0.8v-5.8c0-0.4,0.1-0.7,0.2-0.9
	c0.4-0.8,1-1.2,1.8-1.2c0.6,0,1.1,0.2,1.4,0.7c0.4,0.4,0.6,0.8,0.6,1.4v14.6C222.2,383.2,222.1,384.1,221.9,384.9z M218,378.4
	c-0.2-0.5-0.7-1-1.4-1.4c-0.5-0.2-1-0.4-1.7-0.5c-0.4,0-0.9,0.2-1.5,0.5c-1.1,0.8-1.7,2.3-1.7,4.5c0.1,1.9,0.6,3.4,1.7,4.4
	c0.5,0.3,1,0.5,1.5,0.6h0.3c0.5,0.1,1-0.1,1.4-0.4c1.1-0.5,1.6-1.8,1.5-3.9v-2.4C218.1,379.3,218.1,378.8,218,378.4z"/>
<path class="st0" d="M237.3,390.5c-0.4,0.5-0.9,0.7-1.5,0.6c-0.9-0.1-1.5-0.5-1.8-1.3c-1.6,0.8-3.3,0.9-5.2,0.3
	c-0.5-0.2-0.9-0.4-1.3-0.7c-1.7-1.1-2.7-2.7-3.2-4.8c-0.7-3.3-0.3-6.2,1.3-8.5c1.4-1.9,3.3-2.9,5.5-2.9c1,0,1.9,0.3,2.9,0.8
	c0.5,0.3,0.9,0.6,1.3,0.9c1.5,1.4,2.4,3.2,2.5,5.6v7.7C237.9,389.3,237.7,390,237.3,390.5z M230.2,377.5c-1,0.3-1.6,1-1.8,2
	c-0.4,1.5-0.4,3.1,0,4.6c0,0.2,0.1,0.4,0.2,0.6c0.4,1,1.1,1.5,2.1,1.7c0.6,0.1,1.1,0,1.4-0.1c1-0.4,1.6-1.4,1.7-3.1
	c0.1-2.3-0.1-3.8-0.5-4.5c-0.6-0.9-1.3-1.4-2.4-1.4C230.8,377.4,230.5,377.4,230.2,377.5z"/>
<path class="st0" d="M245.1,365.4c0.6,0,1.1,0.2,1.5,0.6c0.4,0.4,0.6,0.9,0.5,1.4v5.2h2.5c0.8,0,1.4,0.4,1.8,1.1
	c0.4,0.6,0.4,1.3,0,2c-0.4,0.7-1,1-1.8,1h-2.5v7.9c0,0.8,0.1,1.3,0.4,1.5c0.2,0.2,0.4,0.3,0.8,0.4c0.4,0.2,0.9,0.1,1.5-0.1
	c0.8-0.3,1.5-0.1,2.1,0.5c0.5,0.5,0.7,1.2,0.5,2c-0.2,0.8-0.7,1.2-1.4,1.4l-1.4,0.2c-2.2,0.2-3.9-0.5-5-1.8
	c-0.9-1.1-1.4-2.5-1.4-4.2v-7.9h-1.2c-0.8,0.1-1.4-0.3-1.7-1c-0.4-0.7-0.4-1.4,0-2c0.4-0.7,0.9-1.1,1.7-1.1h1.2v-5.2
	c0-0.8,0.4-1.4,1.1-1.9C244.5,365.4,244.8,365.4,245.1,365.4z"/>
<path class="st0" d="M267.5,390.5c-0.4,0.5-0.9,0.7-1.5,0.6c-0.9-0.1-1.5-0.5-1.8-1.3c-1.6,0.8-3.3,0.9-5.2,0.3
	c-0.5-0.2-0.9-0.4-1.3-0.7c-1.7-1.1-2.7-2.7-3.2-4.8c-0.7-3.3-0.3-6.2,1.3-8.5c1.4-1.9,3.3-2.9,5.5-2.9c1,0,1.9,0.3,2.9,0.8
	c0.5,0.3,0.9,0.6,1.3,0.9c1.5,1.4,2.4,3.2,2.5,5.6v7.7C268,389.3,267.9,390,267.5,390.5z M260.4,377.5c-1,0.3-1.6,1-1.8,2
	c-0.4,1.5-0.4,3.1,0,4.6c0,0.2,0.1,0.4,0.2,0.6c0.4,1,1.1,1.5,2.1,1.7c0.6,0.1,1.1,0,1.4-0.1c1-0.4,1.6-1.4,1.7-3.1
	c0.1-2.3-0.1-3.8-0.5-4.5c-0.6-0.9-1.3-1.4-2.4-1.4C261,377.4,260.7,377.4,260.4,377.5z"/>
<path class="st1" d="M286.5,365.5l1.1,0.2c0.8,0.2,1.3,0.7,1.5,1.4c0.2,0.8,0,1.5-0.6,2c-0.6,0.6-1.2,0.7-2,0.5l-1.3-0.2
	c-0.5,0-0.8,0.2-1.1,0.5c-0.3,0.3-0.4,0.8-0.4,1.5v1.9h3.3c0.8-0.1,1.3,0.3,1.7,1c0.4,0.7,0.4,1.4,0,2c-0.4,0.7-1,1.1-1.7,1.1h-3.3
	v11.2c0,0.8-0.3,1.4-0.9,1.8c-0.7,0.4-1.4,0.4-2.1,0c-0.7-0.4-1-1-1-1.8v-11.2h-0.5c-0.8,0-1.4-0.4-1.8-1.1c-0.4-0.6-0.4-1.3,0-2
	c0.4-0.7,1-1,1.8-1h0.5v-1.9c0-1.7,0.4-3.1,1.3-4.1c0.7-0.9,1.7-1.5,3-1.7C284.8,365.4,285.6,365.4,286.5,365.5z"/>
<path class="st1" d="M317.8,372.5c0.6,0,1.1,0.2,1.5,0.6c0.4,0.4,0.6,0.9,0.6,1.5v8.6c0,0.7,0.1,1.3,0.4,1.7
	c0.4,0.7,0.8,1.1,1.3,1.3c0.5,0.2,1,0.2,1.5,0.2c1.3,0,2.1-0.4,2.6-1.1l0.2-0.4c0.3-0.6,0.4-1.1,0.4-1.7v-8.6c0-0.8,0.4-1.4,1.1-1.8
	c0.7-0.4,1.4-0.4,2,0c0.7,0.4,1.1,1,1.1,1.8v8.6c-0.3,3.5-1.9,5.8-4.7,6.8c-0.8,0.3-1.7,0.5-2.6,0.5c-2.4,0-4.3-0.9-5.7-2.7
	c-0.3-0.3-0.5-0.6-0.7-1c-0.6-1.2-0.9-2.4-0.9-3.6v-8.6c0-0.9,0.4-1.5,1.1-1.9C317.2,372.6,317.5,372.5,317.8,372.5z"/>
<path class="st1" d="M333.9,379.9c0-1.8,0.5-3.3,1.6-4.6c1.3-1.6,3.1-2.4,5.5-2.4c3.6,0.4,5.9,2,6.7,4.9c0.2,0.7,0.3,1.4,0.3,2.1
	v8.6c0,0.8-0.4,1.4-1.1,1.7c-0.3,0.2-0.6,0.2-0.8,0.2c-0.9,0-1.4-0.4-1.7-1.2c-0.1-0.3-0.2-0.5-0.2-0.8v-8.6
	c-0.1-1.9-1.2-2.9-3.2-3.1c-1.7,0-2.8,0.8-3.1,2.4c-0.1,0.3-0.1,0.5-0.1,0.7v8.6c0,0.8-0.4,1.4-1.2,1.7c-0.2,0.2-0.5,0.2-0.8,0.2
	c-0.9,0-1.5-0.4-1.8-1.2c-0.1-0.3-0.2-0.5-0.2-0.8V379.9z"/>
<path class="st1" d="M355.3,365.4c0.6,0,1.1,0.2,1.5,0.6c0.4,0.4,0.6,0.9,0.5,1.4v5.2h2.5c0.8,0,1.4,0.4,1.8,1.1
	c0.4,0.6,0.4,1.3,0,2c-0.4,0.7-1,1-1.8,1h-2.5v7.9c0,0.8,0.1,1.3,0.4,1.5c0.2,0.2,0.4,0.3,0.8,0.4c0.4,0.2,0.9,0.1,1.5-0.1
	c0.8-0.3,1.5-0.1,2.1,0.5c0.5,0.5,0.7,1.2,0.5,2c-0.2,0.8-0.7,1.2-1.4,1.4l-1.4,0.2c-2.2,0.2-3.9-0.5-5-1.8
	c-0.9-1.1-1.4-2.5-1.4-4.2v-7.9h-1.2c-0.8,0.1-1.4-0.3-1.7-1c-0.4-0.7-0.4-1.4,0-2c0.4-0.7,0.9-1.1,1.7-1.1h1.2v-5.2
	c0-0.8,0.4-1.4,1.1-1.9C354.7,365.4,355,365.4,355.3,365.4z"/>
<path class="st1" d="M377.7,390.5c-0.4,0.5-0.9,0.7-1.5,0.6c-0.9-0.1-1.5-0.5-1.8-1.3c-1.6,0.8-3.3,0.9-5.2,0.3
	c-0.5-0.2-0.9-0.4-1.3-0.7c-1.7-1.1-2.7-2.7-3.2-4.8c-0.7-3.3-0.3-6.2,1.3-8.5c1.4-1.9,3.3-2.9,5.5-2.9c1,0,1.9,0.3,2.9,0.8
	c0.5,0.3,0.9,0.6,1.3,0.9c1.5,1.4,2.3,3.2,2.5,5.6v7.7C378.2,389.3,378.1,390,377.7,390.5z M370.6,377.5c-1,0.3-1.6,1-1.8,2
	c-0.4,1.5-0.4,3.1,0,4.6c0,0.2,0.1,0.4,0.2,0.6c0.4,1,1.1,1.5,2.1,1.7c0.6,0.1,1.1,0,1.4-0.1c1-0.4,1.6-1.4,1.7-3.1
	c0.1-2.3-0.1-3.8-0.5-4.5c-0.6-0.9-1.3-1.4-2.3-1.4C371.2,377.4,370.9,377.4,370.6,377.5z"/>
<path class="st1" d="M385.2,365.7c0.5,0.5,0.7,1,0.7,1.6v0.3c0,0.8-0.3,1.3-1,1.7c-0.7,0.4-1.4,0.4-2,0c-0.7-0.4-1-1-1-1.7v-0.3
	c0-0.3,0.1-0.5,0.2-0.7c0.3-0.8,0.8-1.3,1.7-1.4C384.3,365.1,384.8,365.3,385.2,365.7z M385.3,373.1c0.4,0.4,0.6,0.9,0.6,1.4v14
	c0,0.8-0.3,1.3-1,1.7c-0.7,0.4-1.4,0.4-2,0c-0.7-0.4-1-1-1-1.7v-14c0-0.3,0.1-0.6,0.2-0.8c0.3-0.8,0.9-1.2,1.7-1.2
	C384.5,372.5,384.9,372.7,385.3,373.1z"/>
<path class="st1" d="M389.5,379.9c0-1.8,0.5-3.3,1.6-4.6c1.3-1.6,3.1-2.4,5.5-2.4c3.6,0.4,5.9,2,6.7,4.9c0.2,0.7,0.3,1.4,0.3,2.1
	v8.6c0,0.8-0.4,1.4-1.1,1.7c-0.3,0.2-0.6,0.2-0.8,0.2c-0.9,0-1.4-0.4-1.7-1.2c-0.1-0.3-0.2-0.5-0.2-0.8v-8.6
	c-0.1-1.9-1.2-2.9-3.2-3.1c-1.7,0-2.8,0.8-3.1,2.4c-0.1,0.3-0.1,0.5-0.1,0.7v8.6c0,0.8-0.4,1.4-1.2,1.7c-0.2,0.2-0.5,0.2-0.8,0.2
	c-0.9,0-1.5-0.4-1.8-1.2c-0.1-0.3-0.2-0.5-0.2-0.8V379.9z"/>
<path class="st2" d="M302.7,370.8c5.1,0,9.2,4.1,9.2,9.2c0,5.1-4.1,9.2-9.2,9.2c-5.1,0-9.2-4.1-9.2-9.2
	C293.5,374.9,297.6,370.8,302.7,370.8z M302,369.5c6.8,0,12.3,5.5,12.3,12.3c0,6.8-5.5,12.3-12.3,12.3c-6.8,0-12.3-5.5-12.3-12.3
	C289.6,375,295.2,369.5,302,369.5z"/>
<path class="st3" d="M302.9,372c0.4,0,0.7,0,1,0.1c-2.4,0.4-4.2,2.5-4.2,5c0,2.8,2.3,5.1,5.1,5.1c2.7,0,4.9-2.1,5-4.7
	c0.2,0.6,0.2,1.2,0.2,1.8c0,4-3.2,7.2-7.2,7.2c-4,0-7.2-3.2-7.2-7.2C295.7,375.2,298.9,372,302.9,372L302.9,372z"/>
<path class="st3" d="M306,400.2c0.5,0.8,0.8,1.7,0.8,2.6c0,2.6-2.1,4.8-4.8,4.8c-2.6,0-4.8-2.1-4.8-4.8c0-2.6,2-4.7,4.6-4.8
	c-1.1,0.5-1.9,1.6-1.9,2.8c0,1.7,1.4,3.1,3.1,3.1c1.7,0,3.1-1.4,3.1-3.1C306,400.6,306,400.4,306,400.2z"/>
<path class="st3" d="M306.7,406.2c10.8-0.4,20.4,1.5,26,3.2c7,2.1,7,4.7-0.1,6.6c-5.8,1.6-15.8,2.6-27.2,2.6
	c-18,0-32.5-2.6-32.5-5.9c0-1.8,4.5-3.4,11.5-4.5c-3.8,0.9-6.1,2-6.1,3.2c0,2.5,11.1,4.2,24.8,4.2c4.4,0,8.6-0.3,12.2-0.7
	C343.3,412,316.5,407.2,306.7,406.2z"/>
<path class="st2" d="M321.2,404.4c21.2,1.5,36.6,5.8,36.6,10.8c0,6.3-23.7,12.5-52.9,12.5c-29.2,0-52.9-6.3-52.9-12.5
	c0-5.6,19.2-10.3,44.3-11.2c-12.2,0.8-22.5,2.9-28.7,5.1c-3.7,1.3-5.7,2.6-5.9,3.9c-1,7.5,35.3,9.8,40.1,9.9c14.2,0.4,28.9-1,39-4.7
	c7.6-2.8,9.2-6.3,0.9-9.5C337.1,406.9,330,405.3,321.2,404.4z"/>
<path class="st3" d="M307.4,407.8c2.4,0.1,8.7,0.8,10.5,2.4c1,0.8-0.1,1.6-2.7,2.2c-3,0.7-7.8,1.2-13.3,1.2c-9,0-16.9-1.3-16.9-2.7
	c0-1.5,5.6-3.1,13.6-3.4c-3.6,0.6-9,1.8-9,2.7c0,0.9,5.8,1.8,12.2,1.8c2.7,0,5.1-0.2,7.1-0.4C317.6,410.5,312.1,408.8,307.4,407.8z"
	/>
</svg>
